#define cursor_width 26
#define cursor_height 26
#define cursor_x_hot 1
#define cursor_y_hot 1

static unsigned char cursor_bits[] = {
 0x01, 0x00, 0x00, 0x00, 0x03, 0x00, 0x00, 0x00, 0x05, 0x00, 0x00, 0x00,
 0x09, 0x00, 0x00, 0x00, 0x11, 0x00, 0x00, 0x00, 0x21, 0x00, 0x00, 0x00,
 0x41, 0x00, 0x00, 0x00, 0x81, 0x00, 0x00, 0x00, 0x11, 0x01, 0x00, 0x00,
 0x31, 0x02, 0x00, 0x00, 0x71, 0x04, 0x00, 0x00, 0xf1, 0x08, 0x00, 0x00,
 0xf1, 0x11, 0x00, 0x00, 0xf1, 0x23, 0x00, 0x00, 0xf1, 0x47, 0x00, 0x00,
 0x71, 0x8e, 0x00, 0x00, 0x31, 0x18, 0x01, 0x00, 0x11, 0x03, 0x02, 0x00,
 0x81, 0x0c, 0x04, 0x00, 0x41, 0x30, 0x08, 0x00, 0x21, 0xc0, 0x10, 0x00,
 0x11, 0x00, 0x23, 0x00, 0x09, 0x00, 0x4c, 0x00, 0x05, 0x00, 0xb0, 0x00,
 0x03, 0x00, 0xc0, 0x01, 0x01, 0x00, 0x00, 0x03 };
